<svg width="39" height="39" viewBox="0 0 39 39" fill="none" xmlns="http://www.w3.org/2000/svg">
<g clip-path="url(#clip0_122_1707)">
<circle cx="19.5" cy="19.5" r="19.5" fill="white"/>
<path d="M7.36963 24.6058C7.36963 24.6058 7.82065 30.1416 12.1055 32.8184C16.3903 35.4953 20.548 35.3073 23.7773 34.3269C27.0066 33.3465 29.1809 30.4306 29.8965 29.0842C30.6122 27.7379 30.8398 25.9307 30.8584 24.9199L30.6057 24.9911C30.6057 24.9911 27.9135 26.7633 25.5799 27.2597C25.5799 27.2597 24.2883 29.4137 24.1861 29.4137C24.0839 29.4137 23.647 29.4137 23.647 29.4137L23.5158 29.6689C23.5158 29.6689 22.8759 31.7269 22.2052 32.4502L15.2797 32.3543C15.2797 32.3543 13.8795 31.116 13.6189 29.2175L13.3929 28.8898L12.3905 28.3857L11.4958 26.7205C11.4958 26.7205 7.64048 24.4685 7.61317 24.4597C7.58586 24.451 7.4872 24.4585 7.44929 24.4597C7.41137 24.461 7.36963 24.6058 7.36963 24.6058Z" fill="url(#paint0_linear_122_1707)"/>
<path d="M22.8343 10.7882C21.4555 10.1419 20.3532 9.93384 19.3914 9.93384C18.5084 9.93384 17.7438 10.1091 16.9911 10.2815C15.0418 10.7282 13.3443 11.8405 12.2112 13.4134C11.2688 14.7217 10.785 16.2172 10.7731 17.8586C10.7639 19.1255 11.1792 20.1908 12.0073 21.0249C13.8742 22.9055 17.4742 23.3002 20.1654 23.3002C21.9167 23.3002 27.6482 23.0025 27.8713 19.1721C28.066 15.8295 25.9006 12.2252 22.8343 10.7882Z" fill="#000072"/>
<path d="M20.1073 7.88855C18.2047 7.88855 16.0164 8.74486 13.9453 10.2997C11.936 11.8083 10.2057 13.8314 9.07327 15.9963C6.89984 20.1515 7.40605 23.8621 7.4545 24.1776C8.42693 25.0689 11.4651 26.704 11.4958 26.7205C11.5066 26.7263 11.5155 26.735 11.5216 26.7455L12.4752 28.4018L13.5726 28.9854C13.6684 28.5326 14.0582 26.7868 14.4188 26.5463C14.8341 26.2695 21.1627 26.3264 22.0275 26.6147C22.9006 26.9058 23.5266 28.9921 23.6276 29.3482H24.164C24.2961 29.2053 25.0594 27.9849 25.5241 27.2255C25.5331 27.2107 25.5477 27.2001 25.5645 27.196C28.2064 26.5592 30.5774 24.9376 30.8466 24.7493C31.146 19.8803 29.3144 14.8329 25.9435 11.2415C24.0022 9.17335 21.7659 7.88855 20.1073 7.88855ZM28.002 19.1797C27.7722 23.1245 21.9457 23.4311 20.1653 23.4311C17.4493 23.4311 13.813 23.0297 11.9143 21.1171C11.0607 20.2573 10.6327 19.1607 10.6421 17.8576C10.6542 16.1886 11.1463 14.6675 12.1049 13.3369C13.2566 11.738 14.9815 10.6076 16.9618 10.1539C18.4817 9.80568 20.2044 9.41094 22.8899 10.6696C24.3866 11.371 25.7286 12.6058 26.6687 14.1463C27.6262 15.7152 28.0996 17.5027 28.002 19.1797Z" fill="url(#paint1_linear_122_1707)"/>
<path d="M15.2845 32.3043C15.2855 32.3052 15.2859 32.3065 15.2868 32.3074C15.2879 32.3085 15.2894 32.3092 15.2905 32.3104C15.4657 32.5131 22.0884 32.6266 22.091 32.6223C22.0913 32.6219 22.0919 32.6216 22.0922 32.6212C22.0926 32.6206 22.0926 32.6199 22.093 32.6194C22.1032 32.6051 23.1104 31.1726 23.5105 29.4149C23.4541 29.2141 22.8193 27.0166 21.9863 26.7388C21.5313 26.5873 19.6721 26.5072 18.0312 26.4952C16.1704 26.4814 14.6491 26.5503 14.4917 26.6552C14.1994 26.8501 13.8118 28.4711 13.6848 29.0896C13.7131 30.8853 15.2687 32.2903 15.2845 32.3043Z" fill="#08CFFC"/>
<g opacity="0.25">
<path d="M11.8451 29.0166C11.8789 29.0589 13.6471 29.8296 13.6471 29.8296C13.6471 29.8296 13.6472 29.8295 13.6473 29.8295C13.5947 29.6032 13.5613 29.3675 13.555 29.1244L12.3972 28.5085C12.3863 28.5027 12.3774 28.4941 12.3712 28.4834L11.4175 26.827C11.219 26.72 8.69957 25.1831 7.49487 24.3862C7.53981 24.5701 7.47334 24.9833 7.59501 25.4124C7.59501 25.4124 10.4767 26.9556 10.9328 27.2343C11.3889 27.5131 11.8113 28.9744 11.8451 29.0166Z" fill="#00116B"/>
</g>
<g opacity="0.25">
<path d="M24.7879 29.8382C24.8217 29.796 25.6849 27.9831 26.1817 27.7856C26.6933 27.5822 30.5638 26.0062 30.831 25.8989C30.9632 25.4887 30.808 25.036 30.8583 24.8608C29.8667 25.4433 27.3211 26.9029 25.6215 27.317C24.2983 29.4792 24.2308 29.4792 24.1861 29.4792H23.6296C23.5791 29.6962 23.5194 29.908 23.4539 30.1129C23.4539 30.1129 23.4539 30.113 23.454 30.1129C23.454 30.1129 24.7541 29.8805 24.7879 29.8382Z" fill="#00116B"/>
</g>
<g opacity="0.25">
<path d="M15.5276 31.9873C15.8984 32.454 16.4731 32.3295 17.0655 32.3955L18.5794 32.3798L20.5059 32.4469C21.1197 32.4271 21.5857 32.5736 21.8934 32.0422C22.0256 31.8137 22.1632 31.5979 22.2602 31.3963C22.6916 30.4998 22.9004 29.9737 23.0118 29.1524C23.0118 29.1524 22.4221 30.5012 21.2728 31.2952C20.1235 32.0893 18.5977 31.8976 18.5977 31.8976C18.5977 31.8976 17.0624 31.9736 15.9131 31.1796C14.7638 30.3856 14.1836 29.1523 14.1836 29.1523C14.2951 29.9737 14.696 30.7175 15.1145 31.3963C15.2345 31.591 15.3717 31.791 15.5276 31.9873Z" fill="#00116B"/>
</g>
<g opacity="0.25">
<path d="M25.2758 26.5882L30.192 24.2949C30.2089 23.9369 30.1565 22.9078 30.1565 22.9078C29.3343 23.5798 26.8959 24.6158 26.8959 24.6158L26.849 24.0375C26.8257 23.7501 26.5029 23.5967 26.2625 23.756C23.4233 25.6374 19.1804 25.5704 19.1804 25.5704C19.1804 25.5704 14.9376 25.6374 12.0983 23.756C11.8579 23.5967 11.5351 23.7501 11.5118 24.0375L11.4649 24.6158C11.4649 24.6158 9.0265 23.5798 8.20436 22.9078C8.20436 22.9078 7.91717 23.4776 7.93407 23.8355L11.9379 26.1701L12.7911 27.944L13.7079 28.3922C13.7079 28.3922 13.708 28.3919 13.708 28.3918C13.8766 27.7004 14.1554 26.722 14.4188 26.5464C14.8341 26.2696 21.1627 26.3265 22.0275 26.6148C22.7057 26.8409 23.2346 28.1497 23.4844 28.8899L24.0467 28.8182L25.2758 26.5882Z" fill="#000072"/>
</g>
<g opacity="0.4">
<path d="M9.62556 28.1032C9.75141 28.1827 10.5198 28.3798 10.5529 28.4237C10.586 28.4675 11.2682 29.5671 11.5994 29.9049C11.5994 29.9049 10.8443 28.2092 10.8046 28.1628C10.7648 28.1165 9.25464 27.6329 9.25464 27.6661C9.25464 27.6992 9.49971 28.0237 9.62556 28.1032Z" fill="white"/>
</g>
<g opacity="0.4">
<path d="M27.1835 28.4237C27.2166 28.3798 27.985 28.1827 28.1108 28.1032C28.2367 28.0237 28.4818 27.6992 28.4818 27.6661C28.4818 27.6329 26.9716 28.1165 26.9318 28.1628C26.8921 28.2092 26.137 29.9049 26.137 29.9049C26.4681 29.5671 27.1504 28.4675 27.1835 28.4237Z" fill="white"/>
</g>
<g opacity="0.4">
<path d="M23.263 28.6601C23.1301 28.0979 22.4578 27.2895 22.2671 26.8999C22.2158 26.8092 22.1638 26.7307 22.1124 26.6695C22.1065 26.6645 22.1006 26.6591 22.0947 26.6553C21.9924 26.587 21.3131 26.5341 20.339 26.5091C19.796 26.5004 19.211 26.4962 18.7072 26.4943C18.6568 26.4945 18.6062 26.4948 18.5553 26.4952C18.4684 26.4958 18.3809 26.4967 18.2931 26.4977C18.2054 26.4967 18.1178 26.4958 18.031 26.4952C17.9801 26.4948 17.9295 26.4945 17.8791 26.4943C17.3753 26.4962 16.7903 26.5004 16.2473 26.5091C15.2732 26.5341 14.5939 26.587 14.4915 26.6553C14.4857 26.6591 14.4798 26.6645 14.4739 26.6695C14.4225 26.7307 14.3705 26.8092 14.3191 26.8999C14.1285 27.2895 13.9276 28.0328 13.7947 28.595C13.7948 28.6566 13.8011 28.7072 13.8154 28.7421C13.8154 28.7421 14.7277 27.0379 14.791 27.0063C14.8266 26.9885 16.2035 26.9906 17.4058 26.996V27.0063C17.4058 27.0063 21.5611 27.0295 21.8492 27.2403C22.242 27.5277 23.3626 29.1522 23.3626 29.1522C23.3769 29.1172 23.2629 28.7217 23.263 28.6601Z" fill="white"/>
</g>
<g opacity="0.25">
<path d="M16.2471 26.5092C16.7901 26.5005 17.3751 26.4963 17.8789 26.4943C17.2852 26.4913 16.73 26.4968 16.2471 26.5092Z" fill="#00116B"/>
</g>
<g opacity="0.4">
<path d="M16.2471 26.5092C16.7901 26.5005 17.3751 26.4963 17.8789 26.4943C17.2852 26.4913 16.73 26.4968 16.2471 26.5092Z" fill="white"/>
</g>
<g opacity="0.4">
<path d="M10.5022 17.2131C10.5022 17.2131 9.65725 19.5009 11.5997 21.4164C13.5422 23.332 16.0844 24.0215 20.6335 23.9123C25.1826 23.803 27.0736 22.6865 27.9492 21.0376C28.8247 19.3887 27.9492 17.2532 27.9492 17.2532C27.9492 17.2532 28.78 20.4139 25.968 22.0648C23.1559 23.7156 17.8136 23.8105 14.1555 22.4446C10.4974 21.0787 10.6382 18.1261 10.5022 17.2131Z" fill="white"/>
</g>
<path d="M16.8149 15.4634C16.9319 14.4377 16.5814 13.5554 16.0321 13.4927C15.4829 13.4301 14.9428 14.2109 14.8258 15.2366C14.7088 16.2623 15.0593 17.1446 15.6086 17.2073C16.1579 17.2699 16.698 16.4892 16.8149 15.4634Z" fill="#08CFFC"/>
<path d="M24.1599 16.0461C24.2769 15.0203 23.9264 14.138 23.3771 14.0754C22.8278 14.0127 22.2877 14.7935 22.1708 15.8192C22.0538 16.845 22.4043 17.7273 22.9535 17.7899C23.5028 17.8526 24.0429 17.0718 24.1599 16.0461Z" fill="#08CFFC"/>
<g opacity="0.4">
<path d="M13.4998 29.9731C13.4998 29.9731 14.4981 32.6227 15.0505 32.7866C15.603 32.9504 22.377 32.9871 22.377 32.9871C22.377 32.9871 23.1499 31.9855 23.3641 30.6996C23.3641 30.6996 22.1449 32.4315 22.0629 32.4451C21.981 32.4588 15.28 32.3543 15.28 32.3543L13.4998 29.9731Z" fill="white"/>
</g>
<g opacity="0.25">
<path d="M8.21411 27.5541C8.21411 27.5541 11.8978 34.0295 19.1517 34.0295C26.4057 34.0295 30.136 28.3858 30.136 28.3858C30.136 28.3858 28.1266 34.9677 19.7273 34.9677C11.328 34.9677 8.84103 29.6204 8.21411 27.6646" fill="#000072"/>
</g>
<path d="M24.1861 29.6216H23.5779C23.4841 29.6216 23.4019 29.5588 23.3774 29.4682C23.1335 28.5691 22.528 27.0698 21.9411 26.8741C21.0464 26.576 15.0489 26.581 14.5654 26.7776C14.378 26.9256 14.0315 28.1048 13.8225 29.126C13.8093 29.1902 13.7667 29.2444 13.7075 29.2724C13.6481 29.3004 13.5792 29.2986 13.5214 29.2678L12.3303 28.6343C12.2959 28.616 12.2673 28.5883 12.2478 28.5545L11.3143 26.9332C10.8883 26.7029 8.17338 25.2199 7.25191 24.3626C7.21876 24.3318 7.19659 24.291 7.1888 24.2464C7.1607 24.0863 6.52733 20.2743 8.8312 15.8699C9.98206 13.6696 11.7401 11.6139 13.7813 10.0814C15.8994 8.49122 18.146 7.61548 20.1074 7.61548C21.8651 7.61548 24.1213 8.90116 26.1426 11.0547C27.7014 12.7154 28.9845 14.7504 29.8534 16.9398C30.8615 19.4803 31.2868 22.1242 31.1173 24.798C31.1134 24.8602 31.0818 24.9172 31.0312 24.9536C30.9291 25.027 28.5216 26.7418 25.7124 27.4413C25.6106 27.607 25.3506 28.0294 25.0874 28.4475C24.3484 29.6216 24.3268 29.6216 24.1861 29.6216ZM23.7348 29.2061H24.0954C24.2886 28.9467 24.9518 27.8884 25.4027 27.1514C25.4314 27.1044 25.4777 27.0708 25.5312 27.0579C28.0158 26.4589 30.2622 24.9778 30.7086 24.6719C30.9842 19.8627 29.1683 14.8854 25.8396 11.3391C23.9244 9.2986 21.7279 8.03102 20.1074 8.03102C18.2354 8.03102 16.0773 8.87722 14.0308 10.4137C12.038 11.9098 10.3222 13.9159 9.19937 16.0625C7.12883 20.0209 7.51471 23.5747 7.58797 24.1065C8.58504 24.9924 11.533 26.5791 11.5632 26.5953C11.5973 26.6136 11.6257 26.6412 11.645 26.6747L12.5782 28.2954L13.473 28.7714C13.6302 28.0564 13.976 26.6707 14.3399 26.4281C14.6519 26.22 17.026 26.2147 18.0329 26.2222C19.6476 26.234 21.5567 26.3079 22.0725 26.4799C22.9535 26.7736 23.5623 28.621 23.7348 29.2061Z" fill="#000072"/>
<path d="M21.6628 32.6595C18.9364 32.6595 15.2746 32.5621 15.2354 32.5611C15.1865 32.5597 15.1395 32.5412 15.1029 32.5087C15.0349 32.4482 13.4377 31.0066 13.4114 29.0872C13.4098 28.9724 13.5016 28.8782 13.6163 28.8766C13.6173 28.8766 13.6182 28.8766 13.6192 28.8766C13.7327 28.8766 13.8254 28.9677 13.8269 29.0815C13.8481 30.6281 15.0548 31.8849 15.3257 32.1477C15.9082 32.1628 19.5671 32.2532 22.1 32.2431C22.3114 31.9466 23.0425 30.8456 23.3754 29.3681C23.4006 29.2563 23.5115 29.1861 23.6239 29.2111C23.7358 29.2363 23.8061 29.3476 23.7809 29.4595C23.3699 31.2833 22.4098 32.5263 22.3692 32.5783C22.3301 32.6284 22.2702 32.6577 22.2066 32.6581C22.0309 32.6591 21.8488 32.6595 21.6628 32.6595Z" fill="#021168"/>
<path d="M20.1655 23.5736C17.4223 23.5736 13.7466 23.1648 11.8134 21.2176C10.9321 20.3299 10.4902 19.1992 10.4999 17.8568C10.5122 16.1576 11.0134 14.609 11.9896 13.2539C13.1614 11.6271 14.9162 10.4769 16.9302 10.0154C18.4723 9.66199 20.2203 9.26145 22.9504 10.5409C24.4721 11.2541 25.8358 12.5082 26.7903 14.0724C27.7627 15.6658 28.2435 17.4826 28.1442 19.1882C28.0493 20.8166 27.0389 22.0215 25.1409 22.7693C23.365 23.4691 21.2614 23.5736 20.1655 23.5736ZM17.0229 10.4204C15.1074 10.8593 13.4396 11.9519 12.3267 13.4968C11.4019 14.7806 10.9271 16.2485 10.9155 17.8599C10.9066 19.0874 11.308 20.1186 12.1083 20.9248C13.9408 22.7706 17.5013 23.158 20.1655 23.158C21.8853 23.158 27.5134 22.87 27.7293 19.164C27.9208 15.8763 25.7905 12.3309 22.774 10.9172C20.1736 9.69844 18.5719 10.0655 17.0229 10.4204Z" fill="#000072"/>
<path d="M19.1206 35.1906C15.732 35.1906 12.8087 34.0493 10.3935 31.776C8.83347 30.3077 8.04453 28.3307 7.65742 26.9309C7.23926 25.419 7.18794 24.2671 7.18597 24.2188C7.18126 24.1042 7.27037 24.0075 7.38497 24.0028C7.49795 23.9978 7.5964 24.0871 7.60117 24.2017C7.60308 24.2473 7.82416 28.787 10.6784 31.4735C13.9518 34.5545 18.2032 35.4842 23.3146 34.2367C27.8746 33.124 30.6997 28.4639 30.7023 24.7846C30.7024 24.6699 30.7953 24.5769 30.9101 24.5769C30.9101 24.5769 30.9102 24.5769 30.9102 24.5769C31.025 24.577 31.1179 24.6701 31.1178 24.7848C31.1165 26.7719 30.353 28.9515 29.0231 30.7648C27.5792 32.7336 25.5868 34.11 23.4132 34.6405C21.91 35.0073 20.4776 35.1906 19.1206 35.1906Z" fill="#000072"/>
<path d="M27.77 6.99022C27.8954 6.68507 27.8975 6.3835 27.773 6.09247C27.5478 5.56588 26.978 5.22136 26.65 5.11828C26.228 4.98552 25.8154 5.21986 25.6433 5.33848C26.3992 5.74626 27.1234 6.28504 27.77 6.99022Z" fill="#08CFFC"/>
<path d="M10.7711 12.7386C10.937 12.5889 11.5542 12.0696 12.5916 11.6182C13.4007 11.2662 14.586 10.912 16.0785 10.912C16.6272 10.912 17.2171 10.9598 17.8454 11.0732C20.6843 11.5855 24.0819 13.2699 26.6521 14.8742C23.996 11.3914 20.5701 9.62348 18.1327 8.75023C15.416 7.77689 13.3073 7.67313 13.2863 7.67221C13.2862 7.67219 13.2861 7.67211 13.2859 7.6721C13.2857 7.67209 13.2854 7.67216 13.2852 7.67215C13.2556 7.67029 10.3357 7.5083 9.7351 9.08303C9.16477 10.5782 9.88851 11.943 10.7711 12.7386Z" fill="#535580"/>
<path d="M25.8477 8.5876C26.0132 10.2654 24.7485 12.0599 24.5182 12.3708C25.373 13.1379 26.2019 14.0311 26.9625 15.0699C28.1634 15.8363 29.1607 16.5725 29.8001 17.1397C30.0053 16.5393 31.0548 13.0064 28.9598 8.93763C28.6078 8.25408 28.1993 7.66757 27.751 7.16455C27.7425 7.15853 27.7359 7.15107 27.7313 7.14226C27.0597 6.39437 26.2996 5.83351 25.5062 5.41553C25.4923 5.41333 25.4792 5.40699 25.4689 5.39603C24.5914 4.93934 23.6745 4.65632 22.792 4.48926C23.667 4.95259 25.574 6.22169 25.8477 8.5876Z" fill="#535580"/>
<path d="M24.4266 12.3624C24.6617 12.0388 25.8818 10.2726 25.7248 8.68016C25.3918 5.80235 22.5688 4.58629 22.3316 4.48922C20.9051 4.2793 19.6076 4.35359 18.7687 4.45355C18.0316 4.54135 17.3408 4.73778 16.7153 5.03733C14.9649 5.87575 13.7396 7.25468 13.4275 7.6286C13.9239 7.66687 15.8252 7.86094 18.1801 8.70401C19.9631 9.34236 22.2712 10.4568 24.4266 12.3624Z" fill="#08CFFC"/>
<g opacity="0.25">
<path d="M10.9582 9.17473C9.79817 10.4402 10.8661 11.9956 11.1887 12.4073C11.5019 12.1823 11.971 11.8884 12.5919 11.6183C13.401 11.2662 14.5863 10.9121 16.0788 10.9121C16.6275 10.9121 17.2174 10.9599 17.8457 11.0733C19.941 11.4514 22.3404 12.4681 24.487 13.6198C24.9003 13.8363 25.1285 13.9716 25.1285 13.9716C20.6225 9.13889 12.3076 7.70257 10.9582 9.17473Z" fill="#000072"/>
</g>
<g opacity="0.25">
<path d="M22.9698 5.3905C22.9698 6.5224 20.875 8.46522 18.4253 7.84014C15.9757 7.21506 16.1447 5.84664 16.1447 5.84664C14.8522 6.50551 13.9714 7.60688 13.9714 7.60688C13.9714 7.6069 13.9715 7.60691 13.9715 7.60694C14.8118 7.71138 16.3571 7.97542 18.1728 8.62545C19.8435 9.22362 21.9753 10.2398 24.0105 11.9332C24.4471 11.3227 25.1285 10.2011 25.1285 8.90446C24.9052 6.35346 22.9698 5.3905 22.9698 5.3905Z" fill="#000072"/>
</g>
<g opacity="0.25">
<path d="M29.5752 12.2837C29.5752 12.2837 29.1529 12.5872 27.8651 12.0128C26.5773 11.4384 25.8586 9.67302 25.8586 9.67302C25.8378 9.65469 25.7999 9.70363 25.7542 9.78854C25.467 11.0382 24.6933 12.1342 24.5181 12.3708C25.3728 13.1379 26.2017 14.031 26.9623 15.0699C27.9381 15.6926 28.7794 16.2953 29.4035 16.8037C30.1272 14.6679 29.5752 12.2837 29.5752 12.2837Z" fill="#000072"/>
</g>
<g opacity="0.25">
<path d="M27.6168 6.39666C27.5408 6.15274 26.9991 5.76629 26.6792 5.63326C26.4349 5.53169 26.2114 5.58512 26.1191 5.61613C26.6422 5.94459 27.1446 6.34219 27.6101 6.82138C27.6371 6.74518 27.672 6.57368 27.6168 6.39666Z" fill="#00116B"/>
</g>
<g opacity="0.4">
<path d="M11.355 8.24551C13.1791 7.63479 19.7992 8.96889 23.2397 11.4903C21.435 10.1311 19.6039 9.27727 18.1328 8.75023C15.4162 7.77689 13.3074 7.67313 13.2865 7.67221C13.2863 7.67219 13.2862 7.67211 13.286 7.6721C13.2858 7.67209 13.2856 7.67216 13.2853 7.67215C13.2557 7.67029 10.3359 7.5083 9.73523 9.08303C9.41695 9.91748 9.50195 10.7112 9.79242 11.3881C9.75591 10.7476 9.77685 8.77391 11.355 8.24551Z" fill="white"/>
</g>
<g opacity="0.4">
<path d="M28.2408 8.41436C29.2447 9.93681 29.8243 11.4617 30.0726 12.205C29.8928 11.1947 29.5519 10.0876 28.9598 8.93751C28.6078 8.25396 28.1993 7.66745 27.751 7.16443C27.7425 7.15841 27.7359 7.15095 27.7313 7.14214C27.0597 6.39425 26.2996 5.83339 25.5062 5.4154C25.4923 5.4132 25.4792 5.40687 25.4689 5.3959C24.5914 4.93922 23.6745 4.65619 22.792 4.48914C23.0882 4.646 23.5028 4.89561 23.9322 5.2485C24.3257 5.39816 26.9462 6.45114 28.2408 8.41436Z" fill="white"/>
</g>
<path d="M29.8287 17.461C29.7776 17.461 29.7278 17.4423 29.6892 17.4073C28.0988 15.9669 22.418 12.176 17.797 11.3421C15.5363 10.9342 13.7875 11.3991 12.7186 11.861C11.5576 12.3628 10.9233 12.97 10.917 12.9761C10.8393 13.0514 10.7168 13.0546 10.6354 12.9834C9.66385 12.1334 8.85012 10.6368 9.47993 8.98561C10.0884 7.39052 12.6245 7.37691 13.1931 7.39465C13.4936 7.02828 14.7422 5.59725 16.5899 4.71225C17.2424 4.39971 17.9621 4.19491 18.729 4.10356C20.1825 3.93044 22.3638 3.88905 24.5024 4.67547C26.606 5.44903 28.1873 6.84094 29.2025 8.8125C30.4283 11.1931 30.5873 13.3773 30.5049 14.7904C30.4153 16.3267 30.0377 17.2899 30.0217 17.3301C29.9965 17.3934 29.942 17.4403 29.8757 17.4557C29.8601 17.4593 29.8443 17.461 29.8287 17.461ZM16.0786 10.7697C16.6353 10.7697 17.2336 10.8181 17.8708 10.9331C22.1035 11.6969 27.5688 15.0487 29.7307 16.8909C29.8467 16.5051 30.0344 15.7487 30.0911 14.7484C30.1679 13.3911 30.0121 11.2925 28.833 9.00272C26.3438 4.16864 20.9723 4.25453 18.7781 4.51618C18.0566 4.60213 17.3808 4.7942 16.7694 5.08703C14.7707 6.04434 13.4669 7.71683 13.454 7.73361C13.4119 7.78824 13.3455 7.81863 13.2766 7.81416C13.2481 7.81236 10.4313 7.65744 9.86819 9.13369C9.34332 10.5098 9.97025 11.7738 10.7747 12.5474C11.0336 12.3304 11.6285 11.8821 12.535 11.4877C13.3576 11.1298 14.5625 10.7697 16.0786 10.7697Z" fill="#000072"/>
<path d="M26.9252 15.3373C26.8611 15.3373 26.7979 15.3077 26.7572 15.252C24.0965 11.6062 20.5776 9.77866 18.0942 8.88752C15.3961 7.9193 13.3008 7.81522 13.28 7.81428C13.1654 7.80911 13.0767 7.71204 13.0818 7.59745C13.0869 7.4828 13.1841 7.394 13.2985 7.39914C13.3857 7.403 15.4659 7.50512 18.2205 8.4913C20.7631 9.40161 24.3663 11.271 27.0929 15.0069C27.1605 15.0996 27.1402 15.2296 27.0475 15.2973C27.0106 15.3243 26.9677 15.3373 26.9252 15.3373Z" fill="#000072"/>
<path d="M24.432 12.5841C24.3877 12.5841 24.3431 12.57 24.3054 12.5409C24.2144 12.4708 24.1975 12.3404 24.2674 12.2495C24.2823 12.2303 25.7429 10.31 25.5758 8.61545C25.2405 5.71779 22.2868 4.5484 22.257 4.53691C22.15 4.49572 22.0965 4.37554 22.1376 4.26849C22.1788 4.16136 22.2989 4.10797 22.4058 4.1489C22.4388 4.16152 23.2216 4.46561 24.0568 5.15929C25.1695 6.0835 25.8376 7.2633 25.989 8.57117C26.1727 10.4345 24.6611 12.4195 24.5967 12.5031C24.5557 12.5562 24.4942 12.5841 24.432 12.5841Z" fill="#000072"/>
<path d="M27.7877 7.31991C27.7569 7.31991 27.7256 7.313 27.696 7.29842C27.5931 7.24768 27.5508 7.1231 27.6016 7.02017C27.7484 6.72233 27.762 6.42901 27.642 6.14841C27.4357 5.66595 26.9101 5.34921 26.6072 5.254C26.1388 5.10684 25.6561 5.50529 25.6514 5.50935C25.5642 5.58404 25.433 5.57391 25.3584 5.4868C25.2837 5.39966 25.2938 5.26848 25.3809 5.19383C25.4074 5.17107 26.0383 4.63956 26.7317 4.85755C27.1825 4.99924 27.7792 5.41245 28.0241 5.98501C28.1916 6.37661 28.1744 6.79812 27.9742 7.20394C27.9381 7.27733 27.8644 7.31991 27.7877 7.31991Z" fill="#000072"/>
<path d="M18.4888 16.6902L19.9085 16.7805C20.1233 16.7942 20.2633 17.0147 20.1809 17.2136C20.0211 17.5994 19.6967 18.1165 19.1108 18.0907C18.5187 18.0645 18.2672 17.493 18.1627 17.0816C18.11 16.8745 18.2756 16.6767 18.4888 16.6902Z" fill="#08CFFC"/>
<path d="M22.7794 19.0276H14.4683C13.5973 19.0276 12.8887 19.7362 12.8887 20.6072V30.8487C12.8887 31.7196 13.5973 32.4282 14.4683 32.4282H22.7794C23.6504 32.4282 24.359 31.7196 24.359 30.8487V20.6072C24.359 19.7362 23.6504 19.0276 22.7794 19.0276Z" fill="#08CFFC"/>
<g opacity="0.25">
<path d="M22.6879 29.1305C22.2589 30.042 21.1742 30.042 21.1742 30.042H18.6238H16.0735C16.0735 30.042 14.9888 30.042 14.5598 29.1305C14.1309 28.2189 13.97 24.7515 13.5232 23.554V30.8464C13.5232 30.8464 13.7913 31.8294 14.4526 31.8294C15.1139 31.8294 18.6238 31.8294 18.6238 31.8294C18.6238 31.8294 22.1338 31.8294 22.7951 31.8294C23.4564 31.8294 23.7245 30.8464 23.7245 30.8464V23.554C23.2776 24.7515 23.1168 28.2189 22.6879 29.1305Z" fill="#000072"/>
</g>
<g opacity="0.4">
<path d="M22.7794 19.0276H18.6239H14.4683C13.5973 19.0276 12.8887 19.7362 12.8887 20.6072V24.5825L13.0317 24.3673C13.0317 24.3673 13.4696 20.4084 13.4696 20.3458C13.4696 20.2832 13.9522 19.5325 14.7207 19.5325C15.4893 19.5325 18.6238 19.5325 18.6238 19.5325C18.6238 19.5325 21.7584 19.5325 22.527 19.5325C23.2955 19.5325 23.7781 20.2832 23.7781 20.3458C23.7781 20.4084 24.216 24.3673 24.216 24.3673L24.359 24.5825V20.6072C24.359 19.7362 23.6504 19.0276 22.7794 19.0276Z" fill="white"/>
</g>
<path d="M18.4304 20.9493H19.6579C19.6579 20.9493 19.8545 20.5992 19.6949 20.4703C19.5354 20.3413 19.2117 20.3151 19.1519 20.286C19.0921 20.2569 18.9506 19.8301 18.6895 19.809C18.4285 19.7878 18.3323 19.8436 18.2993 19.8831C18.2662 19.9227 18.178 20.1881 18.178 20.1881C18.178 20.1881 17.7663 20.3072 17.7123 20.3413C17.6583 20.3754 17.5398 20.6608 17.5527 20.6848C17.5657 20.7087 17.6032 20.808 17.6408 20.8426C17.6783 20.8773 17.8844 20.9493 17.8844 20.9493L18.4304 20.9493Z" fill="#535580"/>
<path d="M22.7794 32.7053H14.4682C13.4445 32.7053 12.6116 31.8724 12.6116 30.8487V20.6072C12.6116 19.5835 13.4445 18.7506 14.4682 18.7506H22.7794C23.8031 18.7506 24.6359 19.5835 24.6359 20.6072V30.8487C24.6359 31.8724 23.8031 32.7053 22.7794 32.7053ZM14.4682 19.1661C13.6736 19.1661 13.0271 19.8126 13.0271 20.6072V30.8487C13.0271 31.6433 13.6736 32.2898 14.4682 32.2898H22.7794C23.574 32.2898 24.2204 31.6433 24.2204 30.8487V20.6072C24.2204 19.8126 23.574 19.1661 22.7794 19.1661H14.4682Z" fill="#000072"/>
<path d="M19.3633 21.157H17.8844C17.5869 21.157 17.345 20.915 17.345 20.6176C17.345 20.3201 17.5869 20.0781 17.8844 20.0781H17.9794C18.0319 19.7699 18.3009 19.5344 18.6238 19.5344C18.9468 19.5344 19.2158 19.7699 19.2682 20.0781H19.3633C19.6607 20.0781 19.9027 20.3201 19.9027 20.6176C19.9027 20.915 19.6607 21.157 19.3633 21.157ZM17.8844 20.4937C17.8161 20.4937 17.7605 20.5493 17.7605 20.6176C17.7605 20.6859 17.8161 20.7414 17.8844 20.7414H19.3633C19.4316 20.7414 19.4872 20.6859 19.4872 20.6176C19.4872 20.5493 19.4316 20.4937 19.3633 20.4937H19.0585C18.9954 20.4937 18.9358 20.465 18.8963 20.4157C18.8569 20.3665 18.842 20.302 18.8558 20.2404C18.8599 20.2221 18.8619 20.205 18.8619 20.188C18.8619 20.0568 18.7551 19.95 18.6238 19.95C18.4926 19.95 18.3858 20.0568 18.3858 20.188C18.3858 20.205 18.3877 20.2221 18.3919 20.2404C18.4057 20.3019 18.3908 20.3665 18.3513 20.4157C18.3119 20.465 18.2523 20.4937 18.1891 20.4937H17.8844Z" fill="#000072"/>
<path d="M7.52972 22.937C7.29671 22.5308 7.21842 22.1118 7.1929 21.8824C6.64142 22.5722 6.39556 23.2977 6.3147 23.9642C6.54033 23.6849 6.99082 23.1909 7.52972 22.937Z" fill="url(#paint2_linear_122_1707)"/>
<path d="M12.1951 25.9046C12.0445 26.6271 11.931 27.9131 12.6067 29.1215C13.173 29.3428 13.6221 29.2908 13.9409 28.9653C14.4755 28.4194 14.5239 27.188 14.2101 26.4518C13.8137 25.5218 12.4481 25.837 12.1951 25.9046Z" fill="#535580"/>
<path d="M12.0655 25.8487C12.0657 25.8386 12.0676 25.8289 12.0719 25.82C12.1218 25.5919 12.1737 25.4236 12.2025 25.3378C11.2617 24.9478 10.4989 24.3181 9.99048 23.8984C9.69708 23.6562 9.46528 23.4648 9.34252 23.4356C9.00806 23.3564 8.41658 23.69 8.37823 23.712C8.31063 23.7642 6.79602 24.9534 6.71099 26.5355C6.71089 26.5372 6.71012 26.5387 6.70991 26.5404C6.70975 26.5417 6.71022 26.5429 6.70998 26.5441C6.58919 27.2123 6.98392 28.5182 6.9879 28.5313C6.99074 28.5374 7.49004 29.6984 9.45041 29.6984C9.47868 29.6984 9.50723 29.6981 9.53618 29.6977C11.3057 29.6677 12.2313 29.2657 12.4631 29.1493C11.7833 27.9009 11.9094 26.5809 12.0655 25.8487Z" fill="url(#paint3_linear_122_1707)"/>
<path d="M8.21783 23.6626C7.94863 23.4942 7.75056 23.28 7.60287 23.0559C6.93916 23.3624 6.3939 24.081 6.291 24.2225C6.23584 25.1193 6.46104 25.88 6.60063 26.2535C6.80348 24.9121 7.90589 23.9196 8.21783 23.6626Z" fill="#08CFFC"/>
<g opacity="0.25">
<path d="M14.3948 27.7605C14.4253 27.3719 14.383 26.9686 14.2767 26.6341L14.2065 26.5319C14.1015 27.018 12.5955 28.1014 12.1533 27.842C12.2215 28.2216 12.3433 28.6164 12.5441 29.0054C13.8056 29.0884 14.2672 28.2421 14.3948 27.7605Z" fill="#00116B"/>
</g>
<g opacity="0.25">
<path d="M6.291 24.2224C6.23584 25.1192 6.46104 25.8799 6.60063 26.2534C6.6911 25.6552 6.96052 25.1267 7.2589 24.7016C7.06177 24.31 6.95711 23.906 6.90577 23.5386C6.58433 23.8315 6.35413 24.1356 6.291 24.2224Z" fill="#000072"/>
</g>
<g opacity="0.25">
<path d="M6.90246 22.2927C6.55153 22.8552 6.37966 23.4288 6.3147 23.9643C6.44178 23.807 6.64019 23.5816 6.88555 23.3693C6.83686 22.885 6.87572 22.4844 6.90246 22.2927Z" fill="#000072"/>
</g>
<g opacity="0.25">
<path d="M9.53505 29.3759C10.9969 29.3293 12.0129 28.8325 12.2543 28.703C12.0723 28.2453 11.985 27.7887 11.955 27.3647C11.8753 26.8301 12.0035 26.1917 12.0037 26.191V26.1909C12.0036 26.191 11.1771 27.4388 9.57506 27.7069C8.14479 27.9463 6.92424 27.0694 6.71721 26.4596C6.71512 26.4849 6.71234 26.5099 6.711 26.5354C6.71089 26.5372 6.71012 26.5387 6.70991 26.5403C6.70975 26.5416 6.71022 26.5428 6.70998 26.544C6.58919 27.2122 6.98392 28.5181 6.9879 28.5313C6.98918 28.534 7.09226 28.7721 7.38446 29.0324C7.7329 29.189 8.43014 29.4111 9.53505 29.3759Z" fill="#000072"/>
</g>
<g opacity="0.4">
<path d="M9.07231 23.9067C9.27339 23.9536 10.7519 25.1952 12.1273 25.5898C12.1572 25.4772 12.1843 25.3914 12.2022 25.3378C11.2614 24.9478 10.4986 24.3181 9.99019 23.8984C9.69679 23.6562 9.46499 23.4648 9.34223 23.4356C9.00777 23.3564 8.41629 23.69 8.37794 23.712C8.3544 23.7302 8.15518 23.8866 7.90212 24.1492L7.50391 24.6547C7.50391 24.6547 8.87122 23.8597 9.07231 23.9067Z" fill="white"/>
</g>
<g opacity="0.4">
<path d="M7.52971 22.937C7.2967 22.5308 7.21841 22.1118 7.19289 21.8824C7.13161 21.9591 7.07466 22.0363 7.02075 22.1137C7.0379 22.3146 7.09259 22.6982 7.26553 23.0841C7.35074 23.0298 7.43884 22.9798 7.52971 22.937Z" fill="white"/>
</g>
<g opacity="0.4">
<path d="M14.0538 26.1974C13.5369 25.5865 12.4215 25.8442 12.1953 25.9046C12.172 26.0163 12.1496 26.1415 12.1309 26.2777C12.3758 26.2126 13.4671 25.9687 14.0538 26.1974Z" fill="white"/>
</g>
<g opacity="0.4">
<path d="M12.2321 25.7529C12.2313 25.7518 12.2306 25.7506 12.2298 25.7495C12.2294 25.751 12.2291 25.7522 12.2288 25.7537C12.2298 25.7534 12.231 25.7531 12.2321 25.7529Z" fill="white"/>
</g>
<g opacity="0.4">
<path d="M7.60284 23.0559C7.50781 23.0998 7.41562 23.1528 7.32642 23.2106C7.46257 23.4723 7.65743 23.7257 7.93745 23.9133L7.93741 23.9135C8.05463 23.8008 8.15328 23.7158 8.2178 23.6626C7.9486 23.4942 7.75052 23.28 7.60284 23.0559Z" fill="white"/>
</g>
<path d="M6.64175 26.7396C6.5643 26.7396 6.49168 26.6962 6.45597 26.6247C6.44192 26.5967 6.11131 25.9265 6.02156 24.9694C5.93831 24.0812 6.05645 22.7704 7.09213 21.5702C7.14885 21.5045 7.24028 21.481 7.32184 21.5112C7.40312 21.5414 7.45705 21.6189 7.45723 21.7055C7.45729 21.7178 7.47383 22.9336 8.44094 23.4727C8.50225 23.5069 8.54219 23.5697 8.54707 23.6397C8.55188 23.7098 8.52106 23.7776 8.46505 23.8199C8.44984 23.8314 6.93225 24.9994 6.8493 26.5429C6.84425 26.6371 6.77644 26.7161 6.68413 26.7352C6.66997 26.7382 6.65574 26.7396 6.64175 26.7396ZM7.10775 22.2292C6.56989 23.014 6.34336 23.9156 6.43398 24.9157C6.46207 25.2259 6.51862 25.5054 6.58028 25.7377C6.89417 24.7516 7.62101 24.0062 7.99122 23.6752C7.43233 23.256 7.20232 22.6568 7.10775 22.2292Z" fill="#000072"/>
<path d="M6.2164 24.4152C6.17565 24.4152 6.13449 24.4033 6.09844 24.3784C6.00405 24.3131 5.98041 24.1837 6.04567 24.0893C6.07261 24.0504 6.71451 23.1316 7.54502 22.7782C7.65079 22.7331 7.7727 22.7824 7.81758 22.8879C7.86251 22.9935 7.81335 23.1156 7.70781 23.1605C6.98673 23.4674 6.39341 24.317 6.38749 24.3256C6.34714 24.384 6.2823 24.4152 6.2164 24.4152Z" fill="#000072"/>
<path d="M9.44802 29.9755C7.2987 29.9756 6.75148 28.6852 6.72896 28.6295C6.72664 28.6238 6.72461 28.6181 6.7228 28.6121C6.70568 28.556 6.30464 27.2283 6.43723 26.4949C6.45767 26.382 6.56529 26.3069 6.67868 26.3274C6.7916 26.3478 6.8666 26.4559 6.84617 26.5688C6.73702 27.1726 7.08025 28.3561 7.1171 28.4804C7.16239 28.5806 7.65138 29.5599 9.44819 29.5599C9.4764 29.5599 9.50473 29.5597 9.53365 29.5592C11.0415 29.5336 11.9222 29.2351 12.2729 29.0846C11.4968 27.5377 11.8649 25.9558 12.031 25.4151C11.1259 25.0154 10.3956 24.4125 9.90204 24.0051C9.66756 23.8115 9.40173 23.5921 9.31029 23.5704C9.09683 23.5193 8.66578 23.7049 8.44418 23.8337C8.34497 23.8914 8.21783 23.8578 8.16012 23.7587C8.10241 23.6596 8.13586 23.5325 8.23496 23.4747C8.30816 23.432 8.96306 23.0608 9.40654 23.1661C9.5919 23.2102 9.82051 23.399 10.1666 23.6847C10.7031 24.1275 11.4378 24.734 12.3668 25.1056C12.4727 25.148 12.5247 25.2677 12.4833 25.374C12.4759 25.3931 11.7473 27.3274 12.7385 29.0746C12.7939 29.1723 12.7616 29.2963 12.6657 29.3547C12.6265 29.3785 11.6814 29.9384 9.54071 29.9747C9.50961 29.9752 9.47849 29.9755 9.44802 29.9755Z" fill="#000072"/>
<path d="M13.2355 29.5329C13.0199 29.5329 12.7697 29.4861 12.4805 29.3699C12.3741 29.3271 12.3224 29.2061 12.3652 29.0996C12.408 28.9932 12.5289 28.9415 12.6355 28.9843C13.1559 29.1934 13.5619 29.1544 13.8421 28.8683C14.3316 28.3685 14.3735 27.188 14.0828 26.5061C13.6973 25.6017 12.2099 26.0439 12.1949 26.0485C12.0852 26.0819 11.969 26.0203 11.9355 25.9107C11.9018 25.8011 11.9633 25.685 12.0729 25.6512C12.1486 25.628 13.9331 25.0949 14.465 26.3432C14.8139 27.1614 14.7658 28.5192 14.139 29.1591C13.9522 29.3498 13.6617 29.5329 13.2355 29.5329Z" fill="#000072"/>
<path d="M30.6665 22.937C30.8995 22.5308 30.9778 22.1118 31.0033 21.8824C31.5548 22.5722 31.8007 23.2977 31.8815 23.9642C31.6559 23.6849 31.2054 23.1909 30.6665 22.937Z" fill="url(#paint4_linear_122_1707)"/>
<path d="M26.0013 25.9046C26.1519 26.6271 26.2654 27.9131 25.5897 29.1215C25.0234 29.3428 24.5743 29.2908 24.2555 28.9653C23.7209 28.4194 23.6725 27.188 23.9863 26.4518C24.3827 25.5218 25.7483 25.837 26.0013 25.9046Z" fill="#535580"/>
<path d="M26.1307 25.8487C26.1306 25.8386 26.1287 25.8289 26.1244 25.82C26.0745 25.5919 26.0226 25.4236 25.9937 25.3378C26.9346 24.9478 27.6974 24.3181 28.2058 23.8984C28.4992 23.6562 28.731 23.4648 28.8538 23.4356C29.1882 23.3564 29.7797 23.69 29.8181 23.712C29.8857 23.7642 31.4003 24.9534 31.4853 26.5355C31.4854 26.5372 31.4862 26.5387 31.4864 26.5404C31.4865 26.5417 31.4861 26.5429 31.4863 26.5441C31.6071 27.2123 31.2124 28.5182 31.2084 28.5313C31.2055 28.5374 30.7063 29.6984 28.7459 29.6984C28.7176 29.6984 28.6891 29.6981 28.6601 29.6977C26.8906 29.6677 25.965 29.2657 25.7332 29.1493C26.413 27.9009 26.2869 26.5809 26.1307 25.8487Z" fill="url(#paint5_linear_122_1707)"/>
<path d="M29.9783 23.6626C30.2475 23.4942 30.4455 23.28 30.5932 23.0559C31.2569 23.3624 31.8022 24.081 31.9051 24.2225C31.9603 25.1193 31.7351 25.88 31.5955 26.2535C31.3926 24.9121 30.2902 23.9196 29.9783 23.6626Z" fill="#08CFFC"/>
<g opacity="0.25">
<path d="M23.8014 27.7605C23.7709 27.3719 23.8133 26.9686 23.9195 26.6341L23.9897 26.5319C24.0947 27.018 25.6008 28.1014 26.0429 27.842C25.9747 28.2216 25.8529 28.6164 25.6521 29.0054C24.3906 29.0884 23.929 28.2421 23.8014 27.7605Z" fill="#00116B"/>
</g>
<g opacity="0.25">
<path d="M31.9052 24.2224C31.9603 25.1192 31.7351 25.8799 31.5955 26.2534C31.5051 25.6552 31.2356 25.1267 30.9373 24.7016C31.1344 24.31 31.2391 23.906 31.2904 23.5386C31.6118 23.8315 31.842 24.1356 31.9052 24.2224Z" fill="#000072"/>
</g>
<g opacity="0.25">
<path d="M31.2939 22.2927C31.6449 22.8552 31.8167 23.4288 31.8817 23.9643C31.7546 23.807 31.5562 23.5816 31.3109 23.3693C31.3596 22.885 31.3207 22.4844 31.2939 22.2927Z" fill="#000072"/>
</g>
<g opacity="0.25">
<path d="M28.6614 29.3759C27.1995 29.3293 26.1835 28.8325 25.9421 28.703C26.1242 28.2453 26.2114 27.7887 26.2414 27.3647C26.3211 26.8301 26.1929 26.1917 26.1927 26.191V26.1909C26.1928 26.191 27.0193 27.4388 28.6214 27.7069C30.0516 27.9463 31.2722 27.0694 31.4792 26.4596C31.4813 26.4849 31.4841 26.5099 31.4854 26.5354C31.4855 26.5372 31.4863 26.5387 31.4865 26.5403C31.4867 26.5416 31.4862 26.5428 31.4864 26.544C31.6072 27.2122 31.2125 28.5181 31.2085 28.5313C31.2072 28.534 31.1041 28.7721 30.812 29.0324C30.4635 29.189 29.7663 29.4111 28.6614 29.3759Z" fill="#000072"/>
</g>
<g opacity="0.4">
<path d="M29.1238 23.9067C28.9228 23.9536 27.4443 25.1952 26.0689 25.5898C26.0389 25.4772 26.0119 25.3914 25.9939 25.3378C26.9347 24.9478 27.6975 24.3181 28.206 23.8984C28.4994 23.6562 28.7312 23.4648 28.8539 23.4356C29.1884 23.3564 29.7799 23.69 29.8182 23.712C29.8417 23.7302 30.041 23.8866 30.294 24.1492L30.6922 24.6547C30.6922 24.6547 29.3249 23.8597 29.1238 23.9067Z" fill="white"/>
</g>
<g opacity="0.4">
<path d="M30.6665 22.937C30.8995 22.5308 30.9778 22.1118 31.0033 21.8824C31.0646 21.9591 31.1216 22.0363 31.1755 22.1137C31.1583 22.3146 31.1036 22.6982 30.9307 23.0841C30.8455 23.0298 30.7574 22.9798 30.6665 22.937Z" fill="white"/>
</g>
<g opacity="0.4">
<path d="M24.1428 26.1974C24.6598 25.5865 25.7752 25.8442 26.0014 25.9046C26.0247 26.0163 26.0471 26.1415 26.0658 26.2777C25.8209 26.2126 24.7296 25.9687 24.1428 26.1974Z" fill="white"/>
</g>
<g opacity="0.4">
<path d="M25.9646 25.7529C25.9654 25.7518 25.9661 25.7506 25.9669 25.7495C25.9673 25.751 25.9676 25.7522 25.968 25.7537C25.9669 25.7534 25.9657 25.7531 25.9646 25.7529Z" fill="white"/>
</g>
<g opacity="0.4">
<path d="M30.5932 23.0559C30.6883 23.0998 30.7805 23.1528 30.8697 23.2106C30.7335 23.4723 30.5386 23.7257 30.2586 23.9133L30.2587 23.9135C30.1414 23.8008 30.0428 23.7158 29.9783 23.6626C30.2475 23.4942 30.4455 23.28 30.5932 23.0559Z" fill="white"/>
</g>
<path d="M31.5544 26.7395C31.5403 26.7395 31.5262 26.7381 31.5121 26.7351C31.4197 26.716 31.3519 26.637 31.3469 26.5429C31.2639 24.9993 29.7463 23.8314 29.731 23.8198C29.6751 23.7774 29.6443 23.7096 29.6492 23.6396C29.6541 23.5696 29.694 23.5067 29.7552 23.4726C30.7223 22.9336 30.7388 21.7177 30.7389 21.7054C30.7393 21.6188 30.7934 21.5413 30.8746 21.5112C30.956 21.4812 31.0473 21.5045 31.104 21.5702C32.1396 22.7704 32.2578 24.0811 32.1745 24.9693C32.0848 25.9265 31.7542 26.5966 31.7402 26.6247C31.7045 26.696 31.6318 26.7395 31.5544 26.7395ZM30.2049 23.6751C30.5752 24.0061 31.302 24.7515 31.6159 25.7376C31.6775 25.5053 31.7341 25.2259 31.7622 24.9156C31.8527 23.9155 31.6262 23.014 31.0883 22.2291C30.9938 22.6567 30.7638 23.2559 30.2049 23.6751Z" fill="#000072"/>
<path d="M31.9799 24.4152C31.914 24.4152 31.8492 24.384 31.8088 24.3256C31.7995 24.3121 31.205 23.4654 30.4885 23.1605C30.3829 23.1156 30.3338 22.9935 30.3787 22.8879C30.4236 22.7824 30.5454 22.7331 30.6513 22.7781C31.4817 23.1316 32.1237 24.0503 32.1506 24.0893C32.2159 24.1836 32.1922 24.3131 32.0979 24.3783C32.0618 24.4032 32.0206 24.4152 31.9799 24.4152Z" fill="#000072"/>
<path d="M28.7481 29.9755C28.7175 29.9755 28.6866 29.9752 28.6553 29.9747C26.5146 29.9384 25.5695 29.3785 25.5303 29.3546C25.4343 29.2964 25.4021 29.1723 25.4575 29.0746C26.4487 27.3273 25.7201 25.3931 25.7126 25.3737C25.6716 25.2675 25.7235 25.1479 25.8292 25.1056C26.7582 24.734 27.4929 24.1275 28.0295 23.6846C28.3755 23.399 28.6041 23.2102 28.7895 23.1661C29.2328 23.0608 29.8879 23.432 29.9611 23.4747C30.0602 23.5325 30.0937 23.6597 30.0359 23.7588C29.9781 23.8581 29.8508 23.8913 29.7517 23.8337C29.5302 23.7049 29.0993 23.5193 28.8858 23.5704C28.7943 23.5921 28.5285 23.8115 28.294 24.0051C27.8004 24.4125 27.0701 25.0154 26.165 25.4151C26.3311 25.9558 26.6992 27.5378 25.9231 29.0846C26.2733 29.2348 27.1541 29.5336 28.6624 29.5592C30.5254 29.5931 31.0301 28.588 31.079 28.4801C31.1165 28.354 31.4589 27.1721 31.3499 26.5688C31.3295 26.4558 31.4045 26.3478 31.5174 26.3274C31.6304 26.3068 31.7384 26.382 31.7588 26.4949C31.8914 27.2283 31.4904 28.556 31.4733 28.6121C31.4715 28.618 31.4694 28.6238 31.4671 28.6295C31.4446 28.6852 30.897 29.9755 28.7481 29.9755Z" fill="#000072"/>
<path d="M24.9611 29.5328C24.5348 29.5329 24.2444 29.3498 24.0576 29.159C23.4309 28.5191 23.3827 27.1614 23.7316 26.3431C24.2636 25.095 26.048 25.6279 26.1237 25.6511C26.2334 25.6849 26.2949 25.8012 26.2612 25.9109C26.2274 26.0205 26.1112 26.0819 26.0016 26.0484C25.9827 26.0427 24.4988 25.603 24.1138 26.506C23.8231 27.188 23.8649 28.3684 24.3545 28.8683C24.6347 29.1543 25.0406 29.1935 25.561 28.9842C25.6676 28.9414 25.7885 28.9931 25.8313 29.0995C25.8741 29.2061 25.8225 29.3271 25.716 29.3698C25.4269 29.486 25.1766 29.5328 24.9611 29.5328Z" fill="#000072"/>
</g>
<defs>
<linearGradient id="paint0_linear_122_1707" x1="19.114" y1="24.4556" x2="19.114" y2="34.9905" gradientUnits="userSpaceOnUse">
<stop stop-color="white"/>
<stop offset="1" stop-color="#B5B8DC"/>
</linearGradient>
<linearGradient id="paint1_linear_122_1707" x1="19.124" y1="7.88855" x2="19.124" y2="29.3482" gradientUnits="userSpaceOnUse">
<stop stop-color="white"/>
<stop offset="1" stop-color="#B5B8DC"/>
</linearGradient>
<linearGradient id="paint2_linear_122_1707" x1="6.31469" y1="22.9233" x2="7.52972" y2="22.9233" gradientUnits="userSpaceOnUse">
<stop stop-color="white"/>
<stop offset="1" stop-color="#B5B8DC"/>
</linearGradient>
<linearGradient id="paint3_linear_122_1707" x1="6.68701" y1="26.5609" x2="12.4631" y2="26.5609" gradientUnits="userSpaceOnUse">
<stop stop-color="white"/>
<stop offset="1" stop-color="#B5B8DC"/>
</linearGradient>
<linearGradient id="paint4_linear_122_1707" x1="31.8815" y1="22.9233" x2="30.6665" y2="22.9233" gradientUnits="userSpaceOnUse">
<stop stop-color="white"/>
<stop offset="1" stop-color="#B5B8DC"/>
</linearGradient>
<linearGradient id="paint5_linear_122_1707" x1="31.5093" y1="26.5609" x2="25.7331" y2="26.5609" gradientUnits="userSpaceOnUse">
<stop stop-color="white"/>
<stop offset="1" stop-color="#B5B8DC"/>
</linearGradient>
<clipPath id="clip0_122_1707">
<rect width="39" height="39" fill="white"/>
</clipPath>
</defs>
</svg>
