<svg width="25" height="24" viewBox="0 0 25 24" fill="none" xmlns="http://www.w3.org/2000/svg">
<mask id="mask0_114_204" style="mask-type:alpha" maskUnits="userSpaceOnUse" x="0" y="0" width="25" height="24">
<rect x="0.5" width="24" height="24" fill="#D9D9D9"/>
</mask>
<g mask="url(#mask0_114_204)">
<path d="M2.5 5V3C2.5 2.45 2.69583 1.97917 3.0875 1.5875C3.47917 1.19583 3.95 1 4.5 1H6.5C6.78333 1 7.02083 1.09583 7.2125 1.2875C7.40417 1.47917 7.5 1.71667 7.5 2C7.5 2.28333 7.40417 2.52083 7.2125 2.7125C7.02083 2.90417 6.78333 3 6.5 3H4.5V5C4.5 5.28333 4.40417 5.52083 4.2125 5.7125C4.02083 5.90417 3.78333 6 3.5 6C3.21667 6 2.97917 5.90417 2.7875 5.7125C2.59583 5.52083 2.5 5.28333 2.5 5ZM20.5 5V3H18.5C18.2167 3 17.9792 2.90417 17.7875 2.7125C17.5958 2.52083 17.5 2.28333 17.5 2C17.5 1.71667 17.5958 1.47917 17.7875 1.2875C17.9792 1.09583 18.2167 1 18.5 1H20.5C21.05 1 21.5208 1.19583 21.9125 1.5875C22.3042 1.97917 22.5 2.45 22.5 3V5C22.5 5.28333 22.4042 5.52083 22.2125 5.7125C22.0208 5.90417 21.7833 6 21.5 6C21.2167 6 20.9792 5.90417 20.7875 5.7125C20.5958 5.52083 20.5 5.28333 20.5 5ZM2.5 21V19C2.5 18.7167 2.59583 18.4792 2.7875 18.2875C2.97917 18.0958 3.21667 18 3.5 18C3.78333 18 4.02083 18.0958 4.2125 18.2875C4.40417 18.4792 4.5 18.7167 4.5 19V21H6.5C6.78333 21 7.02083 21.0958 7.2125 21.2875C7.40417 21.4792 7.5 21.7167 7.5 22C7.5 22.2833 7.40417 22.5208 7.2125 22.7125C7.02083 22.9042 6.78333 23 6.5 23H4.5C3.95 23 3.47917 22.8042 3.0875 22.4125C2.69583 22.0208 2.5 21.55 2.5 21ZM20.5 23H18.5C18.2167 23 17.9792 22.9042 17.7875 22.7125C17.5958 22.5208 17.5 22.2833 17.5 22C17.5 21.7167 17.5958 21.4792 17.7875 21.2875C17.9792 21.0958 18.2167 21 18.5 21H20.5V19C20.5 18.7167 20.5958 18.4792 20.7875 18.2875C20.9792 18.0958 21.2167 18 21.5 18C21.7833 18 22.0208 18.0958 22.2125 18.2875C22.4042 18.4792 22.5 18.7167 22.5 19V21C22.5 21.55 22.3042 22.0208 21.9125 22.4125C21.5208 22.8042 21.05 23 20.5 23ZM7.5 18H17.5V6H7.5V18ZM7.5 20C6.95 20 6.47917 19.8042 6.0875 19.4125C5.69583 19.0208 5.5 18.55 5.5 18V6C5.5 5.45 5.69583 4.97917 6.0875 4.5875C6.47917 4.19583 6.95 4 7.5 4H17.5C18.05 4 18.5208 4.19583 18.9125 4.5875C19.3042 4.97917 19.5 5.45 19.5 6V18C19.5 18.55 19.3042 19.0208 18.9125 19.4125C18.5208 19.8042 18.05 20 17.5 20H7.5ZM10.5 10H14.5C14.7833 10 15.0208 9.90417 15.2125 9.7125C15.4042 9.52083 15.5 9.28333 15.5 9C15.5 8.71667 15.4042 8.47917 15.2125 8.2875C15.0208 8.09583 14.7833 8 14.5 8H10.5C10.2167 8 9.97917 8.09583 9.7875 8.2875C9.59583 8.47917 9.5 8.71667 9.5 9C9.5 9.28333 9.59583 9.52083 9.7875 9.7125C9.97917 9.90417 10.2167 10 10.5 10ZM10.5 13H14.5C14.7833 13 15.0208 12.9042 15.2125 12.7125C15.4042 12.5208 15.5 12.2833 15.5 12C15.5 11.7167 15.4042 11.4792 15.2125 11.2875C15.0208 11.0958 14.7833 11 14.5 11H10.5C10.2167 11 9.97917 11.0958 9.7875 11.2875C9.59583 11.4792 9.5 11.7167 9.5 12C9.5 12.2833 9.59583 12.5208 9.7875 12.7125C9.97917 12.9042 10.2167 13 10.5 13ZM10.5 16H14.5C14.7833 16 15.0208 15.9042 15.2125 15.7125C15.4042 15.5208 15.5 15.2833 15.5 15C15.5 14.7167 15.4042 14.4792 15.2125 14.2875C15.0208 14.0958 14.7833 14 14.5 14H10.5C10.2167 14 9.97917 14.0958 9.7875 14.2875C9.59583 14.4792 9.5 14.7167 9.5 15C9.5 15.2833 9.59583 15.5208 9.7875 15.7125C9.97917 15.9042 10.2167 16 10.5 16Z" fill="white"/>
</g>
</svg>
