<svg width="30" height="31" viewBox="0 0 30 31" fill="none" xmlns="http://www.w3.org/2000/svg">
<rect x="0.438571" y="0.438571" width="28.9457" height="29.8229" rx="3.07" stroke="white" stroke-width="0.877143"/>
<path d="M20.9995 22.5598C20.9995 22.2587 21.0305 22.0012 21.0925 21.7873C21.1634 21.5654 21.2786 21.3554 21.438 21.1574C21.6064 20.9593 21.8323 20.7533 22.1158 20.5393C22.4614 20.2778 22.7272 20.0599 22.9132 19.8856C23.1082 19.7113 23.2455 19.5409 23.3252 19.3745C23.405 19.2081 23.4448 19.0061 23.4448 18.7684C23.4448 18.3881 23.3075 18.0949 23.0328 17.8889C22.7582 17.6829 22.3595 17.5798 21.8367 17.5798C21.4026 17.5798 21.0172 17.6314 20.6805 17.7344C20.3438 17.8294 20.0204 17.9443 19.7103 18.079L19.2983 17.2471C19.6527 17.0807 20.0426 16.942 20.4679 16.8311C20.902 16.7201 21.3849 16.6647 21.9165 16.6647C22.7582 16.6647 23.4094 16.8509 23.8701 17.2233C24.3308 17.5957 24.5612 18.1028 24.5612 18.7446C24.5612 19.1012 24.4947 19.4062 24.3618 19.6598C24.2378 19.9054 24.0562 20.1352 23.817 20.3491C23.5866 20.5552 23.3119 20.777 22.993 21.0147C22.7006 21.2366 22.4747 21.4307 22.3152 21.5971C22.1646 21.7635 22.0627 21.9299 22.0095 22.0963C21.9563 22.2548 21.9298 22.4489 21.9298 22.6787V22.8807H20.9995V22.5598ZM20.6938 24.6279C20.6938 24.3347 20.7691 24.1287 20.9197 24.0099C21.0792 23.891 21.2786 23.8316 21.5178 23.8316C21.7393 23.8316 21.9298 23.891 22.0892 24.0099C22.2487 24.1287 22.3285 24.3347 22.3285 24.6279C22.3285 24.9131 22.2487 25.1192 22.0892 25.2459C21.9298 25.3727 21.7393 25.4361 21.5178 25.4361C21.2786 25.4361 21.0792 25.3727 20.9197 25.2459C20.7691 25.1192 20.6938 24.9131 20.6938 24.6279Z" fill="white"/>
<path d="M7.98669 21.1697L5.39035 17.4927H6.79378L8.73051 20.3276L10.6532 17.4927H12.0426L9.44626 21.1697L12.1829 25.0151H10.7795L8.73051 22.0117L6.65343 25.0151H5.26404L7.98669 21.1697Z" fill="white"/>
<path d="M20.3614 8.5669V7.47223H23.7577V8.5669H20.3614Z" fill="white"/>
<path d="M9.06733 7.28974H11.8602V8.28617H9.06733V11.1772H8.05686V8.28617H5.26404V7.28974H8.05686V4.38464H9.06733V7.28974Z" fill="white"/>
</svg>
